<?xml version="1.0" encoding="UTF-8"?>
<!DOCTYPE svg PUBLIC "-//W3C//DTD SVG 1.1//EN" "http://www.w3.org/Graphics/SVG/1.1/DTD/svg11.dtd">
<svg version="1.1" xmlns="http://www.w3.org/2000/svg" xmlns:xlink="http://www.w3.org/1999/xlink" x="0" y="0" width="198.425" height="198.425" viewBox="0, 0, 198.425, 198.425">
  <g id="Layer_1">
    <path d="M39.425,133.768 L39.425,64.658 L99.425,30.097 L159.425,64.658 L159.425,133.768 L99.425,168.328 z" fill="#FEFFF2"/>
    <path d="M98.925,32.983 L156.425,66.102 L156.425,132.323 L98.925,165.442 L41.425,132.323 L41.425,66.102 L98.925,32.983 z M98.925,27.212 L36.425,63.212 L36.425,135.213 L98.925,171.213 L161.425,135.213 L161.425,63.212 L98.925,27.212 z" fill="#291B13"/>
    <g>
      <g>
        <path d="M144.439,71.143 C145.02,71.152 145.603,71.167 146.179,71.249 C147.867,71.529 152.272,74.296 152.272,74.296 C152.272,74.296 147.613,73.56 146.179,73.23 C144.744,72.9 139.095,73.458 135.909,74.423 C132.723,75.388 126.985,82.294 124.941,83.258 C122.897,84.223 114.767,84.539 110.182,84.785 C110.299,85.097 110.276,85.612 110.393,85.924 C110.393,85.924 108.54,86.432 108.095,87.092 C107.651,87.752 108.002,87.611 107.955,87.87 C109.627,87.154 111.599,86.254 112.83,86 C114.062,85.746 116.245,86.559 116.41,87.371 C116.575,88.184 116.169,89.682 115.496,90.189 C114.823,90.697 109.998,91.798 107.141,92.4 C106.19,97.689 104.351,106.645 104.287,108.266 C104.224,109.887 104.363,111.237 103.843,112.629 C103.456,113.413 102.389,113.618 101.621,113.765 C100.741,113.933 99.834,113.994 98.939,114 L98.939,114 C98.926,114 98.931,114 98.925,114 C98.919,114 98.924,114 98.911,114 L98.911,114 C97.726,113.979 96.525,113.897 95.382,113.564 C94.847,113.408 94.259,113.16 94.007,112.629 C93.487,111.237 93.626,109.887 93.563,108.266 C93.499,106.645 91.66,97.689 90.709,92.4 C87.852,91.798 83.027,90.697 82.354,90.189 C81.681,89.682 81.275,88.184 81.44,87.371 C81.605,86.559 83.788,85.746 85.02,86 C86.251,86.254 88.223,87.154 89.895,87.87 C89.848,87.611 90.199,87.752 89.755,87.092 C89.31,86.432 87.457,85.924 87.457,85.924 C87.574,85.612 87.551,85.097 87.668,84.785 C83.083,84.539 74.953,84.223 72.909,83.258 C70.865,82.294 65.127,75.388 61.941,74.423 C58.755,73.458 53.106,72.9 51.671,73.23 C50.237,73.56 45.578,74.296 45.578,74.296 C45.578,74.296 49.983,71.529 51.671,71.249 C53.36,70.97 60.113,71.224 62.792,72.011 C65.47,72.798 71.081,78.536 74.064,79.78 C77.047,81.024 84.234,80.183 89.319,80.384 C89.413,80.132 89.495,79.673 89.59,79.42 C89.59,79.42 95.226,77.774 96.153,77.8 C97.147,77.933 98.068,78.445 98.925,78.947 C99.797,78.48 100.691,77.897 101.697,77.8 C102.624,77.774 108.26,79.42 108.26,79.42 C108.355,79.673 108.437,80.132 108.531,80.384 C113.616,80.183 120.803,81.024 123.786,79.78 C126.769,78.536 132.38,72.798 135.058,72.011 C138.102,71.271 141.317,71.146 144.439,71.143 z" fill="#CA885E"/>
        <path d="M144.439,71.143 C145.02,71.152 145.603,71.167 146.179,71.249 C147.867,71.529 152.272,74.296 152.272,74.296 C152.272,74.296 147.613,73.56 146.179,73.23 C144.744,72.9 139.095,73.458 135.909,74.423 C132.723,75.388 126.985,82.294 124.941,83.258 C122.897,84.223 114.767,84.539 110.182,84.785 C110.299,85.097 110.276,85.612 110.393,85.924 C110.393,85.924 108.54,86.432 108.095,87.092 C107.651,87.752 108.002,87.611 107.955,87.87 C109.627,87.154 111.599,86.254 112.83,86 C114.062,85.746 116.245,86.559 116.41,87.371 C116.575,88.184 116.169,89.682 115.496,90.189 C114.823,90.697 109.998,91.798 107.141,92.4 C106.19,97.689 104.351,106.645 104.287,108.266 C104.224,109.887 104.363,111.237 103.843,112.629 C103.456,113.413 102.389,113.618 101.621,113.765 C100.741,113.933 99.834,113.994 98.939,114 L98.939,114 C98.926,114 98.931,114 98.925,114 C98.919,114 98.924,114 98.911,114 L98.911,114 C97.726,113.979 96.525,113.897 95.382,113.564 C94.847,113.408 94.259,113.16 94.007,112.629 C93.487,111.237 93.626,109.887 93.563,108.266 C93.499,106.645 91.66,97.689 90.709,92.4 C87.852,91.798 83.027,90.697 82.354,90.189 C81.681,89.682 81.275,88.184 81.44,87.371 C81.605,86.559 83.788,85.746 85.02,86 C86.251,86.254 88.223,87.154 89.895,87.87 C89.848,87.611 90.199,87.752 89.755,87.092 C89.31,86.432 87.457,85.924 87.457,85.924 C87.574,85.612 87.551,85.097 87.668,84.785 C83.083,84.539 74.953,84.223 72.909,83.258 C70.865,82.294 65.127,75.388 61.941,74.423 C58.755,73.458 53.106,72.9 51.671,73.23 C50.237,73.56 45.578,74.296 45.578,74.296 C45.578,74.296 49.983,71.529 51.671,71.249 C53.36,70.97 60.113,71.224 62.792,72.011 C65.47,72.798 71.081,78.536 74.064,79.78 C77.047,81.024 84.234,80.183 89.319,80.384 C89.413,80.132 89.495,79.673 89.59,79.42 C89.59,79.42 95.226,77.774 96.153,77.8 C97.147,77.933 98.068,78.445 98.925,78.947 C99.797,78.48 100.691,77.897 101.697,77.8 C102.624,77.774 108.26,79.42 108.26,79.42 C108.355,79.673 108.437,80.132 108.531,80.384 C113.616,80.183 120.803,81.024 123.786,79.78 C126.769,78.536 132.38,72.798 135.058,72.011 C138.102,71.271 141.317,71.146 144.439,71.143 z" fill-opacity="0" stroke="#291B13" stroke-width="0.75"/>
      </g>
      <g>
        <path d="M100.583,105.343 C101.211,105.356 101.852,105.373 102.447,105.594 C103.361,106.013 104.237,108.108 104.237,108.108 C104.258,108.14 104.241,108.114 104.287,108.187 L104.282,108.266 C104.218,109.887 104.358,111.237 103.838,112.629 C103.45,113.413 102.383,113.618 101.615,113.765 C100.739,113.932 99.836,113.994 98.944,114 L98.944,114 C98.929,114 98.936,114 98.925,114 C98.914,114 98.921,114 98.906,114 L98.906,114 C97.724,113.978 96.527,113.896 95.387,113.564 C94.852,113.408 94.264,113.16 94.012,112.629 C93.492,111.237 93.632,109.887 93.568,108.266 L93.563,108.187 C93.609,108.114 93.592,108.14 93.613,108.108 C93.613,108.108 94.489,106.013 95.403,105.594 C95.998,105.373 96.639,105.356 97.267,105.343 C98.388,105.357 97.835,105.339 98.925,105.395 C100.015,105.339 99.462,105.357 100.583,105.343 z" fill="#FFFFFF" fill-opacity="0.498"/>
        <path d="M100.583,105.343 C101.211,105.356 101.852,105.373 102.447,105.594 C103.361,106.013 104.237,108.108 104.237,108.108 C104.258,108.14 104.241,108.114 104.287,108.187 L104.282,108.266 C104.218,109.887 104.358,111.237 103.838,112.629 C103.45,113.413 102.383,113.618 101.615,113.765 C100.739,113.932 99.836,113.994 98.944,114 L98.944,114 C98.929,114 98.936,114 98.925,114 C98.914,114 98.921,114 98.906,114 L98.906,114 C97.724,113.978 96.527,113.896 95.387,113.564 C94.852,113.408 94.264,113.16 94.012,112.629 C93.492,111.237 93.632,109.887 93.568,108.266 L93.563,108.187 C93.609,108.114 93.592,108.14 93.613,108.108 C93.613,108.108 94.489,106.013 95.403,105.594 C95.998,105.373 96.639,105.356 97.267,105.343 C98.388,105.357 97.835,105.339 98.925,105.395 C100.015,105.339 99.462,105.357 100.583,105.343 z" fill-opacity="0" stroke="#291B13" stroke-width="0.75"/>
      </g>
      <g>
        <path d="M106.77,91.351 C106.77,91.351 106.084,92.417 106.065,92.913 C106.046,93.408 106.77,93.788 106.77,93.788 C106.77,93.788 107.284,92.532 107.303,92.113 C107.322,91.694 106.77,91.351 106.77,91.351 z" fill="#4D2911"/>
        <path d="M106.77,91.351 C106.77,91.351 106.084,92.417 106.065,92.913 C106.046,93.408 106.77,93.788 106.77,93.788 C106.77,93.788 107.284,92.532 107.303,92.113 C107.322,91.694 106.77,91.351 106.77,91.351 z" fill-opacity="0" stroke="#291B13" stroke-width="0.75"/>
      </g>
      <g>
        <path d="M100.55,110.215 C100.886,110.774 102.378,111.332 102.378,111.332 C102.378,111.332 103.387,108.793 103.393,108.184 C103.4,107.575 102.581,106.559 102.581,106.559 C100.543,108.717 100.213,109.656 100.55,110.215 z" fill="#4D2911"/>
        <path d="M100.55,110.215 C100.886,110.774 102.378,111.332 102.378,111.332 C102.378,111.332 103.387,108.793 103.393,108.184 C103.4,107.575 102.581,106.559 102.581,106.559 C100.543,108.717 100.213,109.656 100.55,110.215 z" fill-opacity="0" stroke="#291B13" stroke-width="0.75"/>
      </g>
      <g>
        <path d="M91.08,91.351 C91.08,91.351 91.766,92.417 91.785,92.913 C91.804,93.408 91.08,93.788 91.08,93.788 C91.08,93.788 90.566,92.532 90.547,92.113 C90.528,91.694 91.08,91.351 91.08,91.351 z" fill="#4D2911"/>
        <path d="M91.08,91.351 C91.08,91.351 91.766,92.417 91.785,92.913 C91.804,93.408 91.08,93.788 91.08,93.788 C91.08,93.788 90.566,92.532 90.547,92.113 C90.528,91.694 91.08,91.351 91.08,91.351 z" fill-opacity="0" stroke="#291B13" stroke-width="0.75"/>
      </g>
      <g>
        <path d="M97.3,110.215 C96.964,110.774 95.472,111.332 95.472,111.332 C95.472,111.332 94.463,108.793 94.457,108.184 C94.45,107.575 95.269,106.559 95.269,106.559 C97.307,108.717 97.637,109.656 97.3,110.215 z" fill="#4D2911"/>
        <path d="M97.3,110.215 C96.964,110.774 95.472,111.332 95.472,111.332 C95.472,111.332 94.463,108.793 94.457,108.184 C94.45,107.575 95.269,106.559 95.269,106.559 C97.307,108.717 97.637,109.656 97.3,110.215 z" fill-opacity="0" stroke="#291B13" stroke-width="0.75"/>
      </g>
    </g>
    <text transform="matrix(1, 0, 0, 1, 98.925, 127.89)">
      <tspan x="-45.645" y="6.75" font-family="LucidaGrande" font-size="24" fill="#291B13">cowplot</tspan>
    </text>
  </g>
</svg>
