<?xml version="1.0" encoding="UTF-8"?>
<!DOCTYPE svg PUBLIC "-//W3C//DTD SVG 1.1//EN" "http://www.w3.org/Graphics/SVG/1.1/DTD/svg11.dtd">
<svg version="1.1" xmlns="http://www.w3.org/2000/svg" xmlns:xlink="http://www.w3.org/1999/xlink" x="0" y="0" width="612" height="432" viewBox="0, 0, 612, 432">
  <g id="Layer_1">
    <g>
      <g>
        <path d="M87.5,193.249 C47.735,193.249 15.5,161.014 15.5,121.249 C15.5,81.485 47.735,49.249 87.5,49.249 C127.265,49.249 159.5,81.485 159.5,121.249 C159.5,161.014 127.265,193.249 87.5,193.249 z" fill="#D24040"/>
        <path d="M87.5,193.249 C47.735,193.249 15.5,161.014 15.5,121.249 C15.5,81.485 47.735,49.249 87.5,49.249 C127.265,49.249 159.5,81.485 159.5,121.249 C159.5,161.014 127.265,193.249 87.5,193.249 z" fill-opacity="0" stroke="#000000" stroke-width="2"/>
      </g>
      <path d="M169.5,193.249 C129.736,193.249 97.5,161.014 97.5,121.249 C97.5,81.485 129.736,49.249 169.5,49.249 C209.264,49.249 241.5,81.485 241.5,121.249 C241.5,161.014 209.264,193.249 169.5,193.249 z" fill-opacity="0" stroke="#000000" stroke-width="2"/>
    </g>
    <g>
      <path d="M128,288.649 C147.781,301.769 158.411,324.451 159,347.75 C158.83,371.078 147.464,393.702 128,406.85 C108.219,393.73 97.589,371.048 97,347.75 C97.169,324.422 108.536,301.797 128,288.649 z" fill="#D24040"/>
      <path d="M87.5,420.249 C47.735,420.249 15.5,388.014 15.5,348.249 C15.5,308.485 47.735,276.249 87.5,276.249 C127.265,276.249 159.5,308.485 159.5,348.249 C159.5,388.014 127.265,420.249 87.5,420.249 z" fill-opacity="0" stroke="#000000" stroke-width="2"/>
      <path d="M169.5,420.249 C129.736,420.249 97.5,388.014 97.5,348.249 C97.5,308.485 129.736,276.249 169.5,276.249 C209.264,276.249 241.5,308.485 241.5,348.249 C241.5,388.014 209.264,420.249 169.5,420.249 z" fill-opacity="0" stroke="#000000" stroke-width="2"/>
    </g>
    <g>
      <g>
        <path d="M525.5,193.249 C485.736,193.249 453.5,161.014 453.5,121.249 C453.5,81.485 485.736,49.249 525.5,49.249 C565.265,49.249 597.5,81.485 597.5,121.249 C597.5,161.014 565.265,193.249 525.5,193.249 z" fill="#D23F40"/>
        <path d="M525.5,193.249 C485.736,193.249 453.5,161.014 453.5,121.249 C453.5,81.485 485.736,49.249 525.5,49.249 C565.265,49.249 597.5,81.485 597.5,121.249 C597.5,161.014 565.265,193.249 525.5,193.249 z" fill-opacity="0" stroke="#000000" stroke-width="2"/>
      </g>
      <path d="M443.5,193.249 C403.736,193.249 371.5,161.014 371.5,121.249 C371.5,81.485 403.736,49.249 443.5,49.249 C483.264,49.249 515.5,81.485 515.5,121.249 C515.5,161.014 483.264,193.249 443.5,193.249 z" fill-opacity="0" stroke="#000000" stroke-width="2"/>
    </g>
    <g>
      <path d="M525,275.749 C564.765,275.749 597,307.985 597,347.749 C597,387.514 564.765,419.749 525,419.749 C510.216,419.831 496.168,415.069 484,406.85 C472.002,415.515 457.649,419.379 443,419.749 C403.236,419.749 371,387.514 371,347.749 C371,307.985 403.236,275.749 443,275.749 C457.784,275.667 471.832,280.43 484,288.649 C495.998,279.984 510.351,276.12 525,275.749 z" fill="#D24040"/>
      <path d="M443.5,420.249 C403.736,420.249 371.5,388.014 371.5,348.249 C371.5,308.485 403.736,276.249 443.5,276.249 C483.264,276.249 515.5,308.485 515.5,348.249 C515.5,388.014 483.264,420.249 443.5,420.249 z" fill-opacity="0" stroke="#000000" stroke-width="2"/>
      <path d="M525.5,420.249 C485.736,420.249 453.5,388.014 453.5,348.249 C453.5,308.485 485.736,276.249 525.5,276.249 C565.265,276.249 597.5,308.485 597.5,348.249 C597.5,388.014 565.265,420.249 525.5,420.249 z" fill-opacity="0" stroke="#000000" stroke-width="2"/>
    </g>
    <text transform="matrix(1, 0, 0, 1, 135.471, 27.249)">
      <tspan x="-49.354" y="8" font-family="Helvetica" font-size="24" fill="#000000">left_join()</tspan>
    </text>
    <text transform="matrix(1, 0, 0, 1, 484, 27.249)">
      <tspan x="-56.689" y="8" font-family="Helvetica" font-size="24" fill="#000000">right_join()</tspan>
    </text>
    <text transform="matrix(1, 0, 0, 1, 128, 254.249)">
      <tspan x="-60.029" y="8" font-family="Helvetica" font-size="24" fill="#000000">inner_join()</tspan>
    </text>
    <text transform="matrix(1, 0, 0, 1, 484, 254.249)">
      <tspan x="-48.686" y="8" font-family="Helvetica" font-size="24" fill="#000000">full_join()</tspan>
    </text>
  </g>
</svg>
